<?xml version="1.0" encoding="UTF-8"?>
<svg xmlns="http://www.w3.org/2000/svg" version="1.1" width="256" height="256" viewBox="0 0 256 256"><rect x="0" y="0" width="256" height="256" fill="#ffffff"/><g transform="scale(8.828)"><g transform="translate(0,0)"><path fill-rule="evenodd" d="M10 0L10 2L11 2L11 0ZM12 0L12 1L13 1L13 2L12 2L12 4L13 4L13 3L14 3L14 4L17 4L17 5L20 5L20 4L21 4L21 1L20 1L20 0L19 0L19 1L16 1L16 0L15 0L15 1L14 1L14 0ZM8 1L8 2L9 2L9 1ZM19 1L19 2L14 2L14 3L19 3L19 4L20 4L20 3L19 3L19 2L20 2L20 1ZM8 3L8 4L9 4L9 5L8 5L8 7L9 7L9 8L6 8L6 9L7 9L7 10L6 10L6 11L7 11L7 12L4 12L4 13L3 13L3 12L2 12L2 11L5 11L5 8L0 8L0 10L1 10L1 11L0 11L0 14L1 14L1 12L2 12L2 14L4 14L4 16L5 16L5 17L3 17L3 16L2 16L2 15L0 15L0 16L2 16L2 17L0 17L0 21L1 21L1 18L2 18L2 20L3 20L3 21L4 21L4 20L6 20L6 21L7 21L7 20L6 20L6 19L7 19L7 18L6 18L6 17L7 17L7 16L8 16L8 17L9 17L9 18L8 18L8 19L9 19L9 21L8 21L8 23L9 23L9 24L8 24L8 29L11 29L11 28L10 28L10 27L11 27L11 26L10 26L10 27L9 27L9 24L11 24L11 25L12 25L12 26L13 26L13 27L12 27L12 29L13 29L13 28L14 28L14 29L16 29L16 28L17 28L17 29L18 29L18 28L17 28L17 27L18 27L18 26L17 26L17 27L16 27L16 26L15 26L15 25L19 25L19 27L20 27L20 28L19 28L19 29L20 29L20 28L21 28L21 29L24 29L24 28L25 28L25 26L26 26L26 27L27 27L27 28L26 28L26 29L27 29L27 28L28 28L28 26L29 26L29 25L27 25L27 24L28 24L28 22L29 22L29 21L28 21L28 22L25 22L25 21L27 21L27 20L25 20L25 19L26 19L26 17L27 17L27 18L29 18L29 17L27 17L27 16L25 16L25 15L24 15L24 14L25 14L25 13L28 13L28 14L27 14L27 15L28 15L28 14L29 14L29 13L28 13L28 10L29 10L29 9L28 9L28 8L27 8L27 9L28 9L28 10L25 10L25 9L26 9L26 8L25 8L25 9L24 9L24 8L23 8L23 9L22 9L22 8L21 8L21 6L20 6L20 8L21 8L21 9L18 9L18 8L17 8L17 6L16 6L16 5L15 5L15 6L14 6L14 8L15 8L15 9L12 9L12 7L13 7L13 5L11 5L11 6L10 6L10 4L11 4L11 3ZM9 6L9 7L10 7L10 6ZM11 6L11 7L12 7L12 6ZM15 6L15 7L16 7L16 6ZM18 6L18 7L19 7L19 6ZM10 8L10 9L9 9L9 10L8 10L8 14L9 14L9 12L11 12L11 13L10 13L10 15L9 15L9 17L10 17L10 20L11 20L11 22L10 22L10 21L9 21L9 23L11 23L11 22L13 22L13 23L12 23L12 25L15 25L15 24L19 24L19 25L20 25L20 27L21 27L21 26L23 26L23 27L22 27L22 28L23 28L23 27L24 27L24 26L25 26L25 25L24 25L24 26L23 26L23 25L20 25L20 24L19 24L19 23L18 23L18 22L20 22L20 20L21 20L21 19L22 19L22 20L23 20L23 19L25 19L25 18L24 18L24 17L25 17L25 16L24 16L24 15L22 15L22 14L21 14L21 13L20 13L20 14L18 14L18 13L19 13L19 12L22 12L22 13L25 13L25 12L27 12L27 11L25 11L25 12L24 12L24 11L23 11L23 10L24 10L24 9L23 9L23 10L22 10L22 9L21 9L21 10L18 10L18 9L17 9L17 8L16 8L16 9L15 9L15 10L16 10L16 11L14 11L14 12L13 12L13 13L12 13L12 11L13 11L13 10L12 10L12 9L11 9L11 8ZM3 9L3 10L4 10L4 9ZM10 9L10 11L11 11L11 9ZM16 9L16 10L17 10L17 9ZM16 11L16 12L14 12L14 13L16 13L16 14L15 14L15 15L14 15L14 16L15 16L15 17L12 17L12 15L13 15L13 14L11 14L11 16L10 16L10 17L12 17L12 18L13 18L13 19L12 19L12 21L13 21L13 20L14 20L14 21L17 21L17 22L18 22L18 21L19 21L19 20L20 20L20 19L21 19L21 18L20 18L20 16L21 16L21 17L22 17L22 18L23 18L23 17L24 17L24 16L23 16L23 17L22 17L22 16L21 16L21 14L20 14L20 16L19 16L19 17L18 17L18 16L17 16L17 15L16 15L16 14L17 14L17 13L18 13L18 12L17 12L17 11ZM16 12L16 13L17 13L17 12ZM4 13L4 14L5 14L5 13ZM6 13L6 14L7 14L7 13ZM5 15L5 16L7 16L7 15ZM15 15L15 16L16 16L16 15ZM15 17L15 18L16 18L16 19L17 19L17 20L18 20L18 19L17 19L17 18L18 18L18 17ZM19 18L19 19L20 19L20 18ZM14 19L14 20L15 20L15 19ZM21 21L21 24L24 24L24 21ZM15 22L15 23L14 23L14 24L15 24L15 23L16 23L16 22ZM22 22L22 23L23 23L23 22ZM25 23L25 24L27 24L27 23ZM26 25L26 26L27 26L27 25ZM14 27L14 28L15 28L15 27ZM0 0L0 7L7 7L7 0ZM1 1L1 6L6 6L6 1ZM2 2L2 5L5 5L5 2ZM22 0L22 7L29 7L29 0ZM23 1L23 6L28 6L28 1ZM24 2L24 5L27 5L27 2ZM0 22L0 29L7 29L7 22ZM1 23L1 28L6 28L6 23ZM2 24L2 27L5 27L5 24Z" fill="#000000"/></g></g></svg>
