<?xml version="1.0" encoding="UTF-8"?>
<svg xmlns="http://www.w3.org/2000/svg" version="1.1" width="256" height="256" viewBox="0 0 256 256"><rect x="0" y="0" width="256" height="256" fill="#ffffff"/><g transform="scale(8.828)"><g transform="translate(0,0)"><path fill-rule="evenodd" d="M8 0L8 1L9 1L9 2L8 2L8 5L9 5L9 4L11 4L11 5L10 5L10 10L9 10L9 8L8 8L8 9L7 9L7 8L6 8L6 9L7 9L7 10L5 10L5 9L4 9L4 8L0 8L0 9L2 9L2 10L0 10L0 11L2 11L2 12L0 12L0 13L1 13L1 15L0 15L0 16L1 16L1 15L2 15L2 17L1 17L1 18L0 18L0 19L1 19L1 18L2 18L2 17L3 17L3 18L6 18L6 19L7 19L7 20L4 20L4 19L3 19L3 20L1 20L1 21L7 21L7 20L8 20L8 22L9 22L9 21L11 21L11 20L12 20L12 19L11 19L11 20L8 20L8 18L10 18L10 17L11 17L11 16L12 16L12 17L13 17L13 16L12 16L12 14L13 14L13 15L14 15L14 18L13 18L13 21L15 21L15 19L16 19L16 22L17 22L17 23L15 23L15 22L14 22L14 23L11 23L11 22L10 22L10 23L9 23L9 24L10 24L10 25L8 25L8 29L10 29L10 28L9 28L9 26L10 26L10 27L11 27L11 26L12 26L12 28L11 28L11 29L12 29L12 28L14 28L14 27L15 27L15 28L17 28L17 27L15 27L15 26L16 26L16 25L17 25L17 26L18 26L18 29L22 29L22 28L21 28L21 27L20 27L20 25L21 25L21 26L22 26L22 25L24 25L24 26L25 26L25 27L23 27L23 28L24 28L24 29L25 29L25 27L27 27L27 29L28 29L28 27L29 27L29 25L28 25L28 27L27 27L27 24L26 24L26 22L25 22L25 21L28 21L28 22L29 22L29 20L27 20L27 19L26 19L26 18L27 18L27 17L28 17L28 16L29 16L29 13L27 13L27 12L26 12L26 14L25 14L25 15L24 15L24 14L23 14L23 13L22 13L22 11L21 11L21 10L20 10L20 9L22 9L22 10L23 10L23 9L22 9L22 8L20 8L20 7L21 7L21 5L20 5L20 4L19 4L19 2L18 2L18 0L17 0L17 1L16 1L16 0L15 0L15 1L16 1L16 2L18 2L18 3L14 3L14 5L13 5L13 3L12 3L12 4L11 4L11 2L14 2L14 0L12 0L12 1L11 1L11 0L10 0L10 1L9 1L9 0ZM19 0L19 1L20 1L20 2L21 2L21 1L20 1L20 0ZM16 4L16 5L14 5L14 6L13 6L13 5L12 5L12 6L11 6L11 8L12 8L12 6L13 6L13 8L14 8L14 9L15 9L15 10L14 10L14 11L11 11L11 13L10 13L10 14L9 14L9 13L6 13L6 12L8 12L8 11L6 11L6 12L5 12L5 10L4 10L4 11L3 11L3 10L2 10L2 11L3 11L3 12L4 12L4 13L3 13L3 14L4 14L4 16L5 16L5 15L6 15L6 16L8 16L8 17L9 17L9 15L11 15L11 13L12 13L12 12L13 12L13 14L14 14L14 15L16 15L16 16L15 16L15 17L16 17L16 16L17 16L17 18L16 18L16 19L17 19L17 18L18 18L18 20L19 20L19 19L20 19L20 18L21 18L21 20L23 20L23 19L24 19L24 20L25 20L25 17L24 17L24 15L23 15L23 14L22 14L22 13L21 13L21 14L22 14L22 15L21 15L21 17L18 17L18 15L19 15L19 16L20 16L20 15L19 15L19 14L17 14L17 15L16 15L16 14L14 14L14 12L15 12L15 11L16 11L16 13L17 13L17 12L18 12L18 11L20 11L20 12L21 12L21 11L20 11L20 10L19 10L19 8L18 8L18 11L17 11L17 8L16 8L16 6L17 6L17 7L18 7L18 5L19 5L19 4ZM8 6L8 7L9 7L9 6ZM14 6L14 7L15 7L15 6ZM19 6L19 7L20 7L20 6ZM24 8L24 10L25 10L25 11L26 11L26 9L27 9L27 8ZM28 8L28 10L29 10L29 8ZM11 9L11 10L12 10L12 9ZM23 11L23 12L24 12L24 11ZM5 13L5 14L6 14L6 15L8 15L8 14L6 14L6 13ZM27 14L27 15L25 15L25 16L26 16L26 17L27 17L27 15L28 15L28 14ZM6 17L6 18L7 18L7 17ZM21 17L21 18L22 18L22 17ZM17 21L17 22L18 22L18 21ZM21 21L21 24L24 24L24 21ZM22 22L22 23L23 23L23 22ZM10 23L10 24L11 24L11 23ZM17 23L17 24L18 24L18 26L19 26L19 25L20 25L20 24L19 24L19 23ZM28 23L28 24L29 24L29 23ZM12 24L12 26L13 26L13 27L14 27L14 26L15 26L15 24ZM13 25L13 26L14 26L14 25ZM19 27L19 28L20 28L20 27ZM0 0L0 7L7 7L7 0ZM1 1L1 6L6 6L6 1ZM2 2L2 5L5 5L5 2ZM22 0L22 7L29 7L29 0ZM23 1L23 6L28 6L28 1ZM24 2L24 5L27 5L27 2ZM0 22L0 29L7 29L7 22ZM1 23L1 28L6 28L6 23ZM2 24L2 27L5 27L5 24Z" fill="#000000"/></g></g></svg>
