<?xml version="1.0" encoding="UTF-8"?>
<svg xmlns="http://www.w3.org/2000/svg" version="1.1" width="256" height="256" viewBox="0 0 256 256"><rect x="0" y="0" width="256" height="256" fill="#ffffff"/><g transform="scale(8.828)"><g transform="translate(0,0)"><path fill-rule="evenodd" d="M8 0L8 1L9 1L9 2L8 2L8 5L9 5L9 4L11 4L11 5L10 5L10 10L8 10L8 9L9 9L9 8L8 8L8 9L7 9L7 8L6 8L6 9L4 9L4 8L0 8L0 10L1 10L1 11L2 11L2 12L0 12L0 14L1 14L1 15L2 15L2 16L3 16L3 15L4 15L4 16L5 16L5 15L7 15L7 14L6 14L6 13L7 13L7 12L6 12L6 11L7 11L7 10L8 10L8 16L6 16L6 17L8 17L8 18L6 18L6 19L5 19L5 20L4 20L4 19L3 19L3 17L1 17L1 18L0 18L0 19L1 19L1 18L2 18L2 20L1 20L1 21L2 21L2 20L3 20L3 21L5 21L5 20L6 20L6 21L7 21L7 20L8 20L8 22L9 22L9 20L12 20L12 19L9 19L9 20L8 20L8 18L10 18L10 16L12 16L12 17L13 17L13 16L12 16L12 14L13 14L13 15L14 15L14 18L13 18L13 21L15 21L15 20L17 20L17 21L18 21L18 19L16 19L16 18L17 18L17 16L16 16L16 15L17 15L17 14L16 14L16 13L18 13L18 14L19 14L19 15L18 15L18 17L21 17L21 18L22 18L22 17L21 17L21 15L22 15L22 14L23 14L23 16L24 16L24 17L25 17L25 18L24 18L24 19L25 19L25 20L20 20L20 19L19 19L19 23L18 23L18 22L17 22L17 23L18 23L18 24L17 24L17 25L16 25L16 23L15 23L15 22L14 22L14 23L11 23L11 21L10 21L10 23L11 23L11 24L9 24L9 25L8 25L8 29L10 29L10 28L9 28L9 27L11 27L11 26L12 26L12 28L11 28L11 29L12 29L12 28L14 28L14 27L15 27L15 28L16 28L16 29L17 29L17 27L18 27L18 28L20 28L20 29L21 29L21 27L20 27L20 26L19 26L19 24L20 24L20 25L21 25L21 26L22 26L22 25L23 25L23 28L22 28L22 29L23 29L23 28L24 28L24 29L25 29L25 27L27 27L27 29L28 29L28 27L29 27L29 25L28 25L28 27L27 27L27 24L26 24L26 26L25 26L25 21L27 21L27 20L28 20L28 19L27 19L27 18L26 18L26 17L25 17L25 16L26 16L26 14L28 14L28 15L29 15L29 13L28 13L28 12L29 12L29 11L27 11L27 12L26 12L26 9L27 9L27 8L24 8L24 10L25 10L25 13L26 13L26 14L24 14L24 11L22 11L22 10L23 10L23 9L22 9L22 8L21 8L21 6L20 6L20 4L19 4L19 3L21 3L21 0L18 0L18 1L20 1L20 2L19 2L19 3L17 3L17 1L16 1L16 0L15 0L15 1L16 1L16 2L15 2L15 3L14 3L14 5L13 5L13 3L12 3L12 4L11 4L11 2L14 2L14 0L12 0L12 1L11 1L11 0L10 0L10 1L9 1L9 0ZM16 3L16 4L17 4L17 7L16 7L16 5L14 5L14 6L13 6L13 5L12 5L12 6L11 6L11 8L12 8L12 6L13 6L13 8L14 8L14 9L15 9L15 10L14 10L14 11L11 11L11 13L9 13L9 14L11 14L11 13L12 13L12 12L13 12L13 14L14 14L14 15L16 15L16 14L14 14L14 12L15 12L15 13L16 13L16 11L17 11L17 12L19 12L19 11L20 11L20 12L22 12L22 13L21 13L21 14L22 14L22 13L23 13L23 12L22 12L22 11L21 11L21 10L22 10L22 9L20 9L20 10L19 10L19 11L17 11L17 10L18 10L18 9L17 9L17 7L18 7L18 5L19 5L19 4L17 4L17 3ZM8 6L8 7L9 7L9 6ZM14 6L14 7L15 7L15 8L16 8L16 7L15 7L15 6ZM19 6L19 7L20 7L20 6ZM28 8L28 10L29 10L29 8ZM1 9L1 10L2 10L2 11L3 11L3 12L2 12L2 14L4 14L4 13L3 13L3 12L4 12L4 11L3 11L3 10L4 10L4 9ZM6 9L6 10L7 10L7 9ZM11 9L11 10L12 10L12 9ZM19 15L19 16L20 16L20 15ZM8 16L8 17L9 17L9 16ZM27 16L27 17L28 17L28 16ZM4 17L4 18L5 18L5 17ZM6 19L6 20L7 20L7 19ZM21 21L21 24L24 24L24 21ZM28 21L28 22L29 22L29 21ZM22 22L22 23L23 23L23 22ZM28 23L28 24L29 24L29 23ZM12 24L12 26L13 26L13 27L14 27L14 26L15 26L15 27L17 27L17 26L15 26L15 24ZM9 25L9 26L11 26L11 25ZM13 25L13 26L14 26L14 25ZM18 26L18 27L19 27L19 26ZM24 26L24 27L25 27L25 26ZM0 0L0 7L7 7L7 0ZM1 1L1 6L6 6L6 1ZM2 2L2 5L5 5L5 2ZM22 0L22 7L29 7L29 0ZM23 1L23 6L28 6L28 1ZM24 2L24 5L27 5L27 2ZM0 22L0 29L7 29L7 22ZM1 23L1 28L6 28L6 23ZM2 24L2 27L5 27L5 24Z" fill="#000000"/></g></g></svg>
