<?xml version="1.0" encoding="UTF-8"?>
<svg xmlns="http://www.w3.org/2000/svg" version="1.1" width="256" height="256" viewBox="0 0 256 256"><rect x="0" y="0" width="256" height="256" fill="#ffffff"/><g transform="scale(8.828)"><g transform="translate(0,0)"><path fill-rule="evenodd" d="M10 0L10 2L11 2L11 0ZM12 0L12 1L13 1L13 2L12 2L12 4L13 4L13 3L14 3L14 4L17 4L17 5L15 5L15 6L14 6L14 8L15 8L15 9L12 9L12 7L13 7L13 5L11 5L11 6L10 6L10 4L11 4L11 3L8 3L8 4L9 4L9 5L8 5L8 7L9 7L9 8L6 8L6 9L10 9L10 11L11 11L11 9L12 9L12 10L13 10L13 11L12 11L12 13L13 13L13 12L14 12L14 13L17 13L17 14L15 14L15 15L14 15L14 16L15 16L15 17L12 17L12 15L13 15L13 14L11 14L11 16L10 16L10 17L9 17L9 15L10 15L10 14L6 14L6 15L5 15L5 14L4 14L4 13L3 13L3 12L2 12L2 9L3 9L3 11L5 11L5 13L7 13L7 12L6 12L6 11L7 11L7 10L6 10L6 11L5 11L5 8L0 8L0 9L1 9L1 11L0 11L0 13L1 13L1 12L2 12L2 14L4 14L4 15L2 15L2 17L0 17L0 21L1 21L1 18L2 18L2 19L3 19L3 20L4 20L4 19L5 19L5 21L8 21L8 23L10 23L10 24L8 24L8 29L9 29L9 27L10 27L10 29L11 29L11 26L10 26L10 24L11 24L11 25L12 25L12 26L13 26L13 27L12 27L12 29L13 29L13 28L14 28L14 29L15 29L15 28L16 28L16 29L19 29L19 28L21 28L21 26L22 26L22 27L23 27L23 29L24 29L24 28L25 28L25 26L26 26L26 25L27 25L27 28L26 28L26 29L27 29L27 28L28 28L28 26L29 26L29 25L27 25L27 24L28 24L28 23L27 23L27 24L25 24L25 23L26 23L26 22L29 22L29 21L28 21L28 20L29 20L29 19L28 19L28 18L29 18L29 17L28 17L28 18L26 18L26 19L28 19L28 20L25 20L25 19L24 19L24 20L22 20L22 19L21 19L21 20L20 20L20 19L19 19L19 18L20 18L20 16L21 16L21 17L22 17L22 18L23 18L23 17L24 17L24 18L25 18L25 17L27 17L27 16L29 16L29 15L28 15L28 14L29 14L29 13L28 13L28 12L29 12L29 11L28 11L28 10L29 10L29 9L28 9L28 8L27 8L27 9L28 9L28 10L25 10L25 9L26 9L26 8L25 8L25 9L24 9L24 8L23 8L23 9L22 9L22 8L21 8L21 4L19 4L19 3L16 3L16 2L17 2L17 1L16 1L16 0L15 0L15 1L14 1L14 0ZM18 0L18 1L21 1L21 0ZM8 1L8 2L9 2L9 1ZM14 2L14 3L15 3L15 2ZM20 2L20 3L21 3L21 2ZM17 5L17 8L19 8L19 9L18 9L18 10L17 10L17 9L15 9L15 10L16 10L16 12L21 12L21 10L22 10L22 9L21 9L21 8L20 8L20 5ZM9 6L9 7L10 7L10 6ZM11 6L11 7L12 7L12 6ZM15 6L15 8L16 8L16 6ZM18 6L18 7L19 7L19 6ZM10 8L10 9L11 9L11 8ZM19 9L19 10L18 10L18 11L19 11L19 10L21 10L21 9ZM23 9L23 10L24 10L24 9ZM14 11L14 12L15 12L15 11ZM22 11L22 13L25 13L25 14L24 14L24 15L25 15L25 16L24 16L24 17L25 17L25 16L27 16L27 15L25 15L25 14L28 14L28 13L25 13L25 12L27 12L27 11L25 11L25 12L24 12L24 11ZM8 12L8 13L11 13L11 12ZM18 13L18 14L17 14L17 16L20 16L20 14L21 14L21 16L22 16L22 17L23 17L23 15L22 15L22 14L21 14L21 13L20 13L20 14L19 14L19 13ZM18 14L18 15L19 15L19 14ZM4 15L4 16L3 16L3 17L4 17L4 18L3 18L3 19L4 19L4 18L5 18L5 17L6 17L6 18L7 18L7 19L6 19L6 20L8 20L8 19L9 19L9 21L11 21L11 22L10 22L10 23L11 23L11 22L13 22L13 23L12 23L12 25L15 25L15 26L16 26L16 28L18 28L18 27L17 27L17 26L19 26L19 27L20 27L20 26L21 26L21 25L20 25L20 24L19 24L19 22L20 22L20 20L18 20L18 18L19 18L19 17L18 17L18 18L17 18L17 17L15 17L15 18L16 18L16 19L17 19L17 20L18 20L18 21L14 21L14 20L15 20L15 19L14 19L14 20L13 20L13 21L12 21L12 19L13 19L13 18L12 18L12 17L10 17L10 19L9 19L9 18L8 18L8 16L7 16L7 15L6 15L6 16L5 16L5 15ZM15 15L15 16L16 16L16 15ZM4 16L4 17L5 17L5 16ZM6 16L6 17L7 17L7 16ZM10 19L10 20L11 20L11 19ZM18 21L18 22L19 22L19 21ZM21 21L21 24L24 24L24 21ZM25 21L25 22L26 22L26 21ZM15 22L15 23L14 23L14 24L15 24L15 25L19 25L19 26L20 26L20 25L19 25L19 24L17 24L17 23L16 23L16 22ZM22 22L22 23L23 23L23 22ZM22 25L22 26L25 26L25 25ZM14 27L14 28L15 28L15 27ZM0 0L0 7L7 7L7 0ZM1 1L1 6L6 6L6 1ZM2 2L2 5L5 5L5 2ZM22 0L22 7L29 7L29 0ZM23 1L23 6L28 6L28 1ZM24 2L24 5L27 5L27 2ZM0 22L0 29L7 29L7 22ZM1 23L1 28L6 28L6 23ZM2 24L2 27L5 27L5 24Z" fill="#000000"/></g></g></svg>
